solid curve_torus
  facet normal 8.436100e-01 2.260446e-01 4.870585e-01
    outer loop
      vertex 1.400000e+00 0.000000e+00 0.000000e+00
      vertex 1.212436e+00 7.000000e-01 0.000000e+00
      vertex 1.039230e+00 6.000000e-01 3.464102e-01
    endloop
  endfacet
  facet normal 8.436100e-01 2.260446e-01 4.870585e-01
    outer loop
      vertex 1.400000e+00 0.000000e+00 0.000000e+00
      vertex 1.039230e+00 6.000000e-01 3.464102e-01
      vertex 1.200000e+00 0.000000e+00 3.464102e-01
    endloop
  endfacet
  facet normal 1.387779e-16 3.718542e-17 1.000000e+00
    outer loop
      vertex 1.200000e+00 0.000000e+00 3.464102e-01
      vertex 1.039230e+00 6.000000e-01 3.464102e-01
      vertex 6.928203e-01 4.000000e-01 3.464102e-01
    endloop
  endfacet
  facet normal 1.387779e-16 3.718542e-17 1.000000e+00
    outer loop
      vertex 1.200000e+00 0.000000e+00 3.464102e-01
      vertex 6.928203e-01 4.000000e-01 3.464102e-01
      vertex 8.000000e-01 0.000000e+00 3.464102e-01
    endloop
  endfacet
  facet normal -8.436100e-01 -2.260446e-01 4.870585e-01
    outer loop
      vertex 8.000000e-01 0.000000e+00 3.464102e-01
      vertex 6.928203e-01 4.000000e-01 3.464102e-01
      vertex 5.196152e-01 3.000000e-01 4.898587e-17
    endloop
  endfacet
  facet normal -8.436100e-01 -2.260446e-01 4.870585e-01
    outer loop
      vertex 8.000000e-01 0.000000e+00 3.464102e-01
      vertex 5.196152e-01 3.000000e-01 4.898587e-17
      vertex 6.000000e-01 0.000000e+00 4.898587e-17
    endloop
  endfacet
  facet normal -8.436100e-01 -2.260446e-01 -4.870585e-01
    outer loop
      vertex 6.000000e-01 0.000000e+00 4.898587e-17
      vertex 5.196152e-01 3.000000e-01 4.898587e-17
      vertex 6.928203e-01 4.000000e-01 -3.464102e-01
    endloop
  endfacet
  facet normal -8.436100e-01 -2.260446e-01 -4.870585e-01
    outer loop
      vertex 6.000000e-01 0.000000e+00 4.898587e-17
      vertex 6.928203e-01 4.000000e-01 -3.464102e-01
      vertex 8.000000e-01 0.000000e+00 -3.464102e-01
    endloop
  endfacet
  facet normal -1.387779e-16 -3.718542e-17 -1.000000e+00
    outer loop
      vertex 8.000000e-01 0.000000e+00 -3.464102e-01
      vertex 6.928203e-01 4.000000e-01 -3.464102e-01
      vertex 1.039230e+00 6.000000e-01 -3.464102e-01
    endloop
  endfacet
  facet normal -1.387779e-16 -3.718542e-17 -1.000000e+00
    outer loop
      vertex 8.000000e-01 0.000000e+00 -3.464102e-01
      vertex 1.039230e+00 6.000000e-01 -3.464102e-01
      vertex 1.200000e+00 0.000000e+00 -3.464102e-01
    endloop
  endfacet
  facet normal 8.436100e-01 2.260446e-01 -4.870585e-01
    outer loop
      vertex 1.200000e+00 0.000000e+00 -3.464102e-01
      vertex 1.039230e+00 6.000000e-01 -3.464102e-01
      vertex 1.212436e+00 7.000000e-01 0.000000e+00
    endloop
  endfacet
  facet normal 8.436100e-01 2.260446e-01 -4.870585e-01
    outer loop
      vertex 1.200000e+00 0.000000e+00 -3.464102e-01
      vertex 1.212436e+00 7.000000e-01 0.000000e+00
      vertex 1.400000e+00 0.000000e+00 0.000000e+00
    endloop
  endfacet
  facet normal 6.175654e-01 6.175654e-01 4.870585e-01
    outer loop
      vertex 1.212436e+00 7.000000e-01 0.000000e+00
      vertex 7.000000e-01 1.212436e+00 0.000000e+00
      vertex 6.000000e-01 1.039230e+00 3.464102e-01
    endloop
  endfacet
  facet normal 6.175654e-01 6.175654e-01 4.870585e-01
    outer loop
      vertex 1.212436e+00 7.000000e-01 0.000000e+00
      vertex 6.000000e-01 1.039230e+00 3.464102e-01
      vertex 1.039230e+00 6.000000e-01 3.464102e-01
    endloop
  endfacet
  facet normal 1.015925e-16 1.015925e-16 1.000000e+00
    outer loop
      vertex 1.039230e+00 6.000000e-01 3.464102e-01
      vertex 6.000000e-01 1.039230e+00 3.464102e-01
      vertex 4.000000e-01 6.928203e-01 3.464102e-01
    endloop
  endfacet
  facet normal 1.015925e-16 1.015925e-16 1.000000e+00
    outer loop
      vertex 1.039230e+00 6.000000e-01 3.464102e-01
      vertex 4.000000e-01 6.928203e-01 3.464102e-01
      vertex 6.928203e-01 4.000000e-01 3.464102e-01
    endloop
  endfacet
  facet normal -6.175654e-01 -6.175654e-01 4.870585e-01
    outer loop
      vertex 6.928203e-01 4.000000e-01 3.464102e-01
      vertex 4.000000e-01 6.928203e-01 3.464102e-01
      vertex 3.000000e-01 5.196152e-01 4.898587e-17
    endloop
  endfacet
  facet normal -6.175654e-01 -6.175654e-01 4.870585e-01
    outer loop
      vertex 6.928203e-01 4.000000e-01 3.464102e-01
      vertex 3.000000e-01 5.196152e-01 4.898587e-17
      vertex 5.196152e-01 3.000000e-01 4.898587e-17
    endloop
  endfacet
  facet normal -6.175654e-01 -6.175654e-01 -4.870585e-01
    outer loop
      vertex 5.196152e-01 3.000000e-01 4.898587e-17
      vertex 3.000000e-01 5.196152e-01 4.898587e-17
      vertex 4.000000e-01 6.928203e-01 -3.464102e-01
    endloop
  endfacet
  facet normal -6.175654e-01 -6.175654e-01 -4.870585e-01
    outer loop
      vertex 5.196152e-01 3.000000e-01 4.898587e-17
      vertex 4.000000e-01 6.928203e-01 -3.464102e-01
      vertex 6.928203e-01 4.000000e-01 -3.464102e-01
    endloop
  endfacet
  facet normal -1.015925e-16 -1.015925e-16 -1.000000e+00
    outer loop
      vertex 6.928203e-01 4.000000e-01 -3.464102e-01
      vertex 4.000000e-01 6.928203e-01 -3.464102e-01
      vertex 6.000000e-01 1.039230e+00 -3.464102e-01
    endloop
  endfacet
  facet normal -1.015925e-16 -1.015925e-16 -1.000000e+00
    outer loop
      vertex 6.928203e-01 4.000000e-01 -3.464102e-01
      vertex 6.000000e-01 1.039230e+00 -3.464102e-01
      vertex 1.039230e+00 6.000000e-01 -3.464102e-01
    endloop
  endfacet
  facet normal 6.175654e-01 6.175654e-01 -4.870585e-01
    outer loop
      vertex 1.039230e+00 6.000000e-01 -3.464102e-01
      vertex 6.000000e-01 1.039230e+00 -3.464102e-01
      vertex 7.000000e-01 1.212436e+00 0.000000e+00
    endloop
  endfacet
  facet normal 6.175654e-01 6.175654e-01 -4.870585e-01
    outer loop
      vertex 1.039230e+00 6.000000e-01 -3.464102e-01
      vertex 7.000000e-01 1.212436e+00 0.000000e+00
      vertex 1.212436e+00 7.000000e-01 0.000000e+00
    endloop
  endfacet
  facet normal 2.260446e-01 8.436100e-01 4.870585e-01
    outer loop
      vertex 7.000000e-01 1.212436e+00 0.000000e+00
      vertex 8.572528e-17 1.400000e+00 0.000000e+00
      vertex 7.347881e-17 1.200000e+00 3.464102e-01
    endloop
  endfacet
  facet normal 2.260446e-01 8.436100e-01 4.870585e-01
    outer loop
      vertex 7.000000e-01 1.212436e+00 0.000000e+00
      vertex 7.347881e-17 1.200000e+00 3.464102e-01
      vertex 6.000000e-01 1.039230e+00 3.464102e-01
    endloop
  endfacet
  facet normal 3.718542e-17 1.387779e-16 1.000000e+00
    outer loop
      vertex 6.000000e-01 1.039230e+00 3.464102e-01
      vertex 7.347881e-17 1.200000e+00 3.464102e-01
      vertex 4.898587e-17 8.000000e-01 3.464102e-01
    endloop
  endfacet
  facet normal 3.718542e-17 1.387779e-16 1.000000e+00
    outer loop
      vertex 6.000000e-01 1.039230e+00 3.464102e-01
      vertex 4.898587e-17 8.000000e-01 3.464102e-01
      vertex 4.000000e-01 6.928203e-01 3.464102e-01
    endloop
  endfacet
  facet normal -2.260446e-01 -8.436100e-01 4.870585e-01
    outer loop
      vertex 4.000000e-01 6.928203e-01 3.464102e-01
      vertex 4.898587e-17 8.000000e-01 3.464102e-01
      vertex 3.673940e-17 6.000000e-01 4.898587e-17
    endloop
  endfacet
  facet normal -2.260446e-01 -8.436100e-01 4.870585e-01
    outer loop
      vertex 4.000000e-01 6.928203e-01 3.464102e-01
      vertex 3.673940e-17 6.000000e-01 4.898587e-17
      vertex 3.000000e-01 5.196152e-01 4.898587e-17
    endloop
  endfacet
  facet normal -2.260446e-01 -8.436100e-01 -4.870585e-01
    outer loop
      vertex 3.000000e-01 5.196152e-01 4.898587e-17
      vertex 3.673940e-17 6.000000e-01 4.898587e-17
      vertex 4.898587e-17 8.000000e-01 -3.464102e-01
    endloop
  endfacet
  facet normal -2.260446e-01 -8.436100e-01 -4.870585e-01
    outer loop
      vertex 3.000000e-01 5.196152e-01 4.898587e-17
      vertex 4.898587e-17 8.000000e-01 -3.464102e-01
      vertex 4.000000e-01 6.928203e-01 -3.464102e-01
    endloop
  endfacet
  facet normal -3.718542e-17 -1.387779e-16 -1.000000e+00
    outer loop
      vertex 4.000000e-01 6.928203e-01 -3.464102e-01
      vertex 4.898587e-17 8.000000e-01 -3.464102e-01
      vertex 7.347881e-17 1.200000e+00 -3.464102e-01
    endloop
  endfacet
  facet normal -3.718542e-17 -1.387779e-16 -1.000000e+00
    outer loop
      vertex 4.000000e-01 6.928203e-01 -3.464102e-01
      vertex 7.347881e-17 1.200000e+00 -3.464102e-01
      vertex 6.000000e-01 1.039230e+00 -3.464102e-01
    endloop
  endfacet
  facet normal 2.260446e-01 8.436100e-01 -4.870585e-01
    outer loop
      vertex 6.000000e-01 1.039230e+00 -3.464102e-01
      vertex 7.347881e-17 1.200000e+00 -3.464102e-01
      vertex 8.572528e-17 1.400000e+00 0.000000e+00
    endloop
  endfacet
  facet normal 2.260446e-01 8.436100e-01 -4.870585e-01
    outer loop
      vertex 6.000000e-01 1.039230e+00 -3.464102e-01
      vertex 8.572528e-17 1.400000e+00 0.000000e+00
      vertex 7.000000e-01 1.212436e+00 0.000000e+00
    endloop
  endfacet
  facet normal -2.260446e-01 8.436100e-01 4.870585e-01
    outer loop
      vertex 8.572528e-17 1.400000e+00 0.000000e+00
      vertex -7.000000e-01 1.212436e+00 0.000000e+00
      vertex -6.000000e-01 1.039230e+00 3.464102e-01
    endloop
  endfacet
  facet normal -2.260446e-01 8.436100e-01 4.870585e-01
    outer loop
      vertex 8.572528e-17 1.400000e+00 0.000000e+00
      vertex -6.000000e-01 1.039230e+00 3.464102e-01
      vertex 7.347881e-17 1.200000e+00 3.464102e-01
    endloop
  endfacet
  facet normal -3.718542e-17 1.387779e-16 1.000000e+00
    outer loop
      vertex 7.347881e-17 1.200000e+00 3.464102e-01
      vertex -6.000000e-01 1.039230e+00 3.464102e-01
      vertex -4.000000e-01 6.928203e-01 3.464102e-01
    endloop
  endfacet
  facet normal -3.718542e-17 1.387779e-16 1.000000e+00
    outer loop
      vertex 7.347881e-17 1.200000e+00 3.464102e-01
      vertex -4.000000e-01 6.928203e-01 3.464102e-01
      vertex 4.898587e-17 8.000000e-01 3.464102e-01
    endloop
  endfacet
  facet normal 2.260446e-01 -8.436100e-01 4.870585e-01
    outer loop
      vertex 4.898587e-17 8.000000e-01 3.464102e-01
      vertex -4.000000e-01 6.928203e-01 3.464102e-01
      vertex -3.000000e-01 5.196152e-01 4.898587e-17
    endloop
  endfacet
  facet normal 2.260446e-01 -8.436100e-01 4.870585e-01
    outer loop
      vertex 4.898587e-17 8.000000e-01 3.464102e-01
      vertex -3.000000e-01 5.196152e-01 4.898587e-17
      vertex 3.673940e-17 6.000000e-01 4.898587e-17
    endloop
  endfacet
  facet normal 2.260446e-01 -8.436100e-01 -4.870585e-01
    outer loop
      vertex 3.673940e-17 6.000000e-01 4.898587e-17
      vertex -3.000000e-01 5.196152e-01 4.898587e-17
      vertex -4.000000e-01 6.928203e-01 -3.464102e-01
    endloop
  endfacet
  facet normal 2.260446e-01 -8.436100e-01 -4.870585e-01
    outer loop
      vertex 3.673940e-17 6.000000e-01 4.898587e-17
      vertex -4.000000e-01 6.928203e-01 -3.464102e-01
      vertex 4.898587e-17 8.000000e-01 -3.464102e-01
    endloop
  endfacet
  facet normal 3.718542e-17 -1.387779e-16 -1.000000e+00
    outer loop
      vertex 4.898587e-17 8.000000e-01 -3.464102e-01
      vertex -4.000000e-01 6.928203e-01 -3.464102e-01
      vertex -6.000000e-01 1.039230e+00 -3.464102e-01
    endloop
  endfacet
  facet normal 3.718542e-17 -1.387779e-16 -1.000000e+00
    outer loop
      vertex 4.898587e-17 8.000000e-01 -3.464102e-01
      vertex -6.000000e-01 1.039230e+00 -3.464102e-01
      vertex 7.347881e-17 1.200000e+00 -3.464102e-01
    endloop
  endfacet
  facet normal -2.260446e-01 8.436100e-01 -4.870585e-01
    outer loop
      vertex 7.347881e-17 1.200000e+00 -3.464102e-01
      vertex -6.000000e-01 1.039230e+00 -3.464102e-01
      vertex -7.000000e-01 1.212436e+00 0.000000e+00
    endloop
  endfacet
  facet normal -2.260446e-01 8.436100e-01 -4.870585e-01
    outer loop
      vertex 7.347881e-17 1.200000e+00 -3.464102e-01
      vertex -7.000000e-01 1.212436e+00 0.000000e+00
      vertex 8.572528e-17 1.400000e+00 0.000000e+00
    endloop
  endfacet
  facet normal -6.175654e-01 6.175654e-01 4.870585e-01
    outer loop
      vertex -7.000000e-01 1.212436e+00 0.000000e+00
      vertex -1.212436e+00 7.000000e-01 0.000000e+00
      vertex -1.039230e+00 6.000000e-01 3.464102e-01
    endloop
  endfacet
  facet normal -6.175654e-01 6.175654e-01 4.870585e-01
    outer loop
      vertex -7.000000e-01 1.212436e+00 0.000000e+00
      vertex -1.039230e+00 6.000000e-01 3.464102e-01
      vertex -6.000000e-01 1.039230e+00 3.464102e-01
    endloop
  endfacet
  facet normal -1.015925e-16 1.015925e-16 1.000000e+00
    outer loop
      vertex -6.000000e-01 1.039230e+00 3.464102e-01
      vertex -1.039230e+00 6.000000e-01 3.464102e-01
      vertex -6.928203e-01 4.000000e-01 3.464102e-01
    endloop
  endfacet
  facet normal -1.015925e-16 1.015925e-16 1.000000e+00
    outer loop
      vertex -6.000000e-01 1.039230e+00 3.464102e-01
      vertex -6.928203e-01 4.000000e-01 3.464102e-01
      vertex -4.000000e-01 6.928203e-01 3.464102e-01
    endloop
  endfacet
  facet normal 6.175654e-01 -6.175654e-01 4.870585e-01
    outer loop
      vertex -4.000000e-01 6.928203e-01 3.464102e-01
      vertex -6.928203e-01 4.000000e-01 3.464102e-01
      vertex -5.196152e-01 3.000000e-01 4.898587e-17
    endloop
  endfacet
  facet normal 6.175654e-01 -6.175654e-01 4.870585e-01
    outer loop
      vertex -4.000000e-01 6.928203e-01 3.464102e-01
      vertex -5.196152e-01 3.000000e-01 4.898587e-17
      vertex -3.000000e-01 5.196152e-01 4.898587e-17
    endloop
  endfacet
  facet normal 6.175654e-01 -6.175654e-01 -4.870585e-01
    outer loop
      vertex -3.000000e-01 5.196152e-01 4.898587e-17
      vertex -5.196152e-01 3.000000e-01 4.898587e-17
      vertex -6.928203e-01 4.000000e-01 -3.464102e-01
    endloop
  endfacet
  facet normal 6.175654e-01 -6.175654e-01 -4.870585e-01
    outer loop
      vertex -3.000000e-01 5.196152e-01 4.898587e-17
      vertex -6.928203e-01 4.000000e-01 -3.464102e-01
      vertex -4.000000e-01 6.928203e-01 -3.464102e-01
    endloop
  endfacet
  facet normal 1.015925e-16 -1.015925e-16 -1.000000e+00
    outer loop
      vertex -4.000000e-01 6.928203e-01 -3.464102e-01
      vertex -6.928203e-01 4.000000e-01 -3.464102e-01
      vertex -1.039230e+00 6.000000e-01 -3.464102e-01
    endloop
  endfacet
  facet normal 1.015925e-16 -1.015925e-16 -1.000000e+00
    outer loop
      vertex -4.000000e-01 6.928203e-01 -3.464102e-01
      vertex -1.039230e+00 6.000000e-01 -3.464102e-01
      vertex -6.000000e-01 1.039230e+00 -3.464102e-01
    endloop
  endfacet
  facet normal -6.175654e-01 6.175654e-01 -4.870585e-01
    outer loop
      vertex -6.000000e-01 1.039230e+00 -3.464102e-01
      vertex -1.039230e+00 6.000000e-01 -3.464102e-01
      vertex -1.212436e+00 7.000000e-01 0.000000e+00
    endloop
  endfacet
  facet normal -6.175654e-01 6.175654e-01 -4.870585e-01
    outer loop
      vertex -6.000000e-01 1.039230e+00 -3.464102e-01
      vertex -1.212436e+00 7.000000e-01 0.000000e+00
      vertex -7.000000e-01 1.212436e+00 0.000000e+00
    endloop
  endfacet
  facet normal -8.436100e-01 2.260446e-01 4.870585e-01
    outer loop
      vertex -1.212436e+00 7.000000e-01 0.000000e+00
      vertex -1.400000e+00 1.714506e-16 0.000000e+00
      vertex -1.200000e+00 1.469576e-16 3.464102e-01
    endloop
  endfacet
  facet normal -8.436100e-01 2.260446e-01 4.870585e-01
    outer loop
      vertex -1.212436e+00 7.000000e-01 0.000000e+00
      vertex -1.200000e+00 1.469576e-16 3.464102e-01
      vertex -1.039230e+00 6.000000e-01 3.464102e-01
    endloop
  endfacet
  facet normal -1.387779e-16 3.718542e-17 1.000000e+00
    outer loop
      vertex -1.039230e+00 6.000000e-01 3.464102e-01
      vertex -1.200000e+00 1.469576e-16 3.464102e-01
      vertex -8.000000e-01 9.797174e-17 3.464102e-01
    endloop
  endfacet
  facet normal -1.387779e-16 3.718542e-17 1.000000e+00
    outer loop
      vertex -1.039230e+00 6.000000e-01 3.464102e-01
      vertex -8.000000e-01 9.797174e-17 3.464102e-01
      vertex -6.928203e-01 4.000000e-01 3.464102e-01
    endloop
  endfacet
  facet normal 8.436100e-01 -2.260446e-01 4.870585e-01
    outer loop
      vertex -6.928203e-01 4.000000e-01 3.464102e-01
      vertex -8.000000e-01 9.797174e-17 3.464102e-01
      vertex -6.000000e-01 7.347881e-17 4.898587e-17
    endloop
  endfacet
  facet normal 8.436100e-01 -2.260446e-01 4.870585e-01
    outer loop
      vertex -6.928203e-01 4.000000e-01 3.464102e-01
      vertex -6.000000e-01 7.347881e-17 4.898587e-17
      vertex -5.196152e-01 3.000000e-01 4.898587e-17
    endloop
  endfacet
  facet normal 8.436100e-01 -2.260446e-01 -4.870585e-01
    outer loop
      vertex -5.196152e-01 3.000000e-01 4.898587e-17
      vertex -6.000000e-01 7.347881e-17 4.898587e-17
      vertex -8.000000e-01 9.797174e-17 -3.464102e-01
    endloop
  endfacet
  facet normal 8.436100e-01 -2.260446e-01 -4.870585e-01
    outer loop
      vertex -5.196152e-01 3.000000e-01 4.898587e-17
      vertex -8.000000e-01 9.797174e-17 -3.464102e-01
      vertex -6.928203e-01 4.000000e-01 -3.464102e-01
    endloop
  endfacet
  facet normal 1.387779e-16 -3.718542e-17 -1.000000e+00
    outer loop
      vertex -6.928203e-01 4.000000e-01 -3.464102e-01
      vertex -8.000000e-01 9.797174e-17 -3.464102e-01
      vertex -1.200000e+00 1.469576e-16 -3.464102e-01
    endloop
  endfacet
  facet normal 1.387779e-16 -3.718542e-17 -1.000000e+00
    outer loop
      vertex -6.928203e-01 4.000000e-01 -3.464102e-01
      vertex -1.200000e+00 1.469576e-16 -3.464102e-01
      vertex -1.039230e+00 6.000000e-01 -3.464102e-01
    endloop
  endfacet
  facet normal -8.436100e-01 2.260446e-01 -4.870585e-01
    outer loop
      vertex -1.039230e+00 6.000000e-01 -3.464102e-01
      vertex -1.200000e+00 1.469576e-16 -3.464102e-01
      vertex -1.400000e+00 1.714506e-16 0.000000e+00
    endloop
  endfacet
  facet normal -8.436100e-01 2.260446e-01 -4.870585e-01
    outer loop
      vertex -1.039230e+00 6.000000e-01 -3.464102e-01
      vertex -1.400000e+00 1.714506e-16 0.000000e+00
      vertex -1.212436e+00 7.000000e-01 0.000000e+00
    endloop
  endfacet
  facet normal -8.436100e-01 -2.260446e-01 4.870585e-01
    outer loop
      vertex -1.400000e+00 1.714506e-16 0.000000e+00
      vertex -1.212436e+00 -7.000000e-01 0.000000e+00
      vertex -1.039230e+00 -6.000000e-01 3.464102e-01
    endloop
  endfacet
  facet normal -8.436100e-01 -2.260446e-01 4.870585e-01
    outer loop
      vertex -1.400000e+00 1.714506e-16 0.000000e+00
      vertex -1.039230e+00 -6.000000e-01 3.464102e-01
      vertex -1.200000e+00 1.469576e-16 3.464102e-01
    endloop
  endfacet
  facet normal -1.387779e-16 -3.718542e-17 1.000000e+00
    outer loop
      vertex -1.200000e+00 1.469576e-16 3.464102e-01
      vertex -1.039230e+00 -6.000000e-01 3.464102e-01
      vertex -6.928203e-01 -4.000000e-01 3.464102e-01
    endloop
  endfacet
  facet normal -1.387779e-16 -3.718542e-17 1.000000e+00
    outer loop
      vertex -1.200000e+00 1.469576e-16 3.464102e-01
      vertex -6.928203e-01 -4.000000e-01 3.464102e-01
      vertex -8.000000e-01 9.797174e-17 3.464102e-01
    endloop
  endfacet
  facet normal 8.436100e-01 2.260446e-01 4.870585e-01
    outer loop
      vertex -8.000000e-01 9.797174e-17 3.464102e-01
      vertex -6.928203e-01 -4.000000e-01 3.464102e-01
      vertex -5.196152e-01 -3.000000e-01 4.898587e-17
    endloop
  endfacet
  facet normal 8.436100e-01 2.260446e-01 4.870585e-01
    outer loop
      vertex -8.000000e-01 9.797174e-17 3.464102e-01
      vertex -5.196152e-01 -3.000000e-01 4.898587e-17
      vertex -6.000000e-01 7.347881e-17 4.898587e-17
    endloop
  endfacet
  facet normal 8.436100e-01 2.260446e-01 -4.870585e-01
    outer loop
      vertex -6.000000e-01 7.347881e-17 4.898587e-17
      vertex -5.196152e-01 -3.000000e-01 4.898587e-17
      vertex -6.928203e-01 -4.000000e-01 -3.464102e-01
    endloop
  endfacet
  facet normal 8.436100e-01 2.260446e-01 -4.870585e-01
    outer loop
      vertex -6.000000e-01 7.347881e-17 4.898587e-17
      vertex -6.928203e-01 -4.000000e-01 -3.464102e-01
      vertex -8.000000e-01 9.797174e-17 -3.464102e-01
    endloop
  endfacet
  facet normal 1.387779e-16 3.718542e-17 -1.000000e+00
    outer loop
      vertex -8.000000e-01 9.797174e-17 -3.464102e-01
      vertex -6.928203e-01 -4.000000e-01 -3.464102e-01
      vertex -1.039230e+00 -6.000000e-01 -3.464102e-01
    endloop
  endfacet
  facet normal 1.387779e-16 3.718542e-17 -1.000000e+00
    outer loop
      vertex -8.000000e-01 9.797174e-17 -3.464102e-01
      vertex -1.039230e+00 -6.000000e-01 -3.464102e-01
      vertex -1.200000e+00 1.469576e-16 -3.464102e-01
    endloop
  endfacet
  facet normal -8.436100e-01 -2.260446e-01 -4.870585e-01
    outer loop
      vertex -1.200000e+00 1.469576e-16 -3.464102e-01
      vertex -1.039230e+00 -6.000000e-01 -3.464102e-01
      vertex -1.212436e+00 -7.000000e-01 0.000000e+00
    endloop
  endfacet
  facet normal -8.436100e-01 -2.260446e-01 -4.870585e-01
    outer loop
      vertex -1.200000e+00 1.469576e-16 -3.464102e-01
      vertex -1.212436e+00 -7.000000e-01 0.000000e+00
      vertex -1.400000e+00 1.714506e-16 0.000000e+00
    endloop
  endfacet
  facet normal -6.175654e-01 -6.175654e-01 4.870585e-01
    outer loop
      vertex -1.212436e+00 -7.000000e-01 0.000000e+00
      vertex -7.000000e-01 -1.212436e+00 0.000000e+00
      vertex -6.000000e-01 -1.039230e+00 3.464102e-01
    endloop
  endfacet
  facet normal -6.175654e-01 -6.175654e-01 4.870585e-01
    outer loop
      vertex -1.212436e+00 -7.000000e-01 0.000000e+00
      vertex -6.000000e-01 -1.039230e+00 3.464102e-01
      vertex -1.039230e+00 -6.000000e-01 3.464102e-01
    endloop
  endfacet
  facet normal -1.015925e-16 -1.015925e-16 1.000000e+00
    outer loop
      vertex -1.039230e+00 -6.000000e-01 3.464102e-01
      vertex -6.000000e-01 -1.039230e+00 3.464102e-01
      vertex -4.000000e-01 -6.928203e-01 3.464102e-01
    endloop
  endfacet
  facet normal -1.015925e-16 -1.015925e-16 1.000000e+00
    outer loop
      vertex -1.039230e+00 -6.000000e-01 3.464102e-01
      vertex -4.000000e-01 -6.928203e-01 3.464102e-01
      vertex -6.928203e-01 -4.000000e-01 3.464102e-01
    endloop
  endfacet
  facet normal 6.175654e-01 6.175654e-01 4.870585e-01
    outer loop
      vertex -6.928203e-01 -4.000000e-01 3.464102e-01
      vertex -4.000000e-01 -6.928203e-01 3.464102e-01
      vertex -3.000000e-01 -5.196152e-01 4.898587e-17
    endloop
  endfacet
  facet normal 6.175654e-01 6.175654e-01 4.870585e-01
    outer loop
      vertex -6.928203e-01 -4.000000e-01 3.464102e-01
      vertex -3.000000e-01 -5.196152e-01 4.898587e-17
      vertex -5.196152e-01 -3.000000e-01 4.898587e-17
    endloop
  endfacet
  facet normal 6.175654e-01 6.175654e-01 -4.870585e-01
    outer loop
      vertex -5.196152e-01 -3.000000e-01 4.898587e-17
      vertex -3.000000e-01 -5.196152e-01 4.898587e-17
      vertex -4.000000e-01 -6.928203e-01 -3.464102e-01
    endloop
  endfacet
  facet normal 6.175654e-01 6.175654e-01 -4.870585e-01
    outer loop
      vertex -5.196152e-01 -3.000000e-01 4.898587e-17
      vertex -4.000000e-01 -6.928203e-01 -3.464102e-01
      vertex -6.928203e-01 -4.000000e-01 -3.464102e-01
    endloop
  endfacet
  facet normal 1.015925e-16 1.015925e-16 -1.000000e+00
    outer loop
      vertex -6.928203e-01 -4.000000e-01 -3.464102e-01
      vertex -4.000000e-01 -6.928203e-01 -3.464102e-01
      vertex -6.000000e-01 -1.039230e+00 -3.464102e-01
    endloop
  endfacet
  facet normal 1.015925e-16 1.015925e-16 -1.000000e+00
    outer loop
      vertex -6.928203e-01 -4.000000e-01 -3.464102e-01
      vertex -6.000000e-01 -1.039230e+00 -3.464102e-01
      vertex -1.039230e+00 -6.000000e-01 -3.464102e-01
    endloop
  endfacet
  facet normal -6.175654e-01 -6.175654e-01 -4.870585e-01
    outer loop
      vertex -1.039230e+00 -6.000000e-01 -3.464102e-01
      vertex -6.000000e-01 -1.039230e+00 -3.464102e-01
      vertex -7.000000e-01 -1.212436e+00 0.000000e+00
    endloop
  endfacet
  facet normal -6.175654e-01 -6.175654e-01 -4.870585e-01
    outer loop
      vertex -1.039230e+00 -6.000000e-01 -3.464102e-01
      vertex -7.000000e-01 -1.212436e+00 0.000000e+00
      vertex -1.212436e+00 -7.000000e-01 0.000000e+00
    endloop
  endfacet
  facet normal -2.260446e-01 -8.436100e-01 4.870585e-01
    outer loop
      vertex -7.000000e-01 -1.212436e+00 0.000000e+00
      vertex -2.571758e-16 -1.400000e+00 0.000000e+00
      vertex -2.204364e-16 -1.200000e+00 3.464102e-01
    endloop
  endfacet
  facet normal -2.260446e-01 -8.436100e-01 4.870585e-01
    outer loop
      vertex -7.000000e-01 -1.212436e+00 0.000000e+00
      vertex -2.204364e-16 -1.200000e+00 3.464102e-01
      vertex -6.000000e-01 -1.039230e+00 3.464102e-01
    endloop
  endfacet
  facet normal -3.718542e-17 -1.387779e-16 1.000000e+00
    outer loop
      vertex -6.000000e-01 -1.039230e+00 3.464102e-01
      vertex -2.204364e-16 -1.200000e+00 3.464102e-01
      vertex -1.469576e-16 -8.000000e-01 3.464102e-01
    endloop
  endfacet
  facet normal -3.718542e-17 -1.387779e-16 1.000000e+00
    outer loop
      vertex -6.000000e-01 -1.039230e+00 3.464102e-01
      vertex -1.469576e-16 -8.000000e-01 3.464102e-01
      vertex -4.000000e-01 -6.928203e-01 3.464102e-01
    endloop
  endfacet
  facet normal 2.260446e-01 8.436100e-01 4.870585e-01
    outer loop
      vertex -4.000000e-01 -6.928203e-01 3.464102e-01
      vertex -1.469576e-16 -8.000000e-01 3.464102e-01
      vertex -1.102182e-16 -6.000000e-01 4.898587e-17
    endloop
  endfacet
  facet normal 2.260446e-01 8.436100e-01 4.870585e-01
    outer loop
      vertex -4.000000e-01 -6.928203e-01 3.464102e-01
      vertex -1.102182e-16 -6.000000e-01 4.898587e-17
      vertex -3.000000e-01 -5.196152e-01 4.898587e-17
    endloop
  endfacet
  facet normal 2.260446e-01 8.436100e-01 -4.870585e-01
    outer loop
      vertex -3.000000e-01 -5.196152e-01 4.898587e-17
      vertex -1.102182e-16 -6.000000e-01 4.898587e-17
      vertex -1.469576e-16 -8.000000e-01 -3.464102e-01
    endloop
  endfacet
  facet normal 2.260446e-01 8.436100e-01 -4.870585e-01
    outer loop
      vertex -3.000000e-01 -5.196152e-01 4.898587e-17
      vertex -1.469576e-16 -8.000000e-01 -3.464102e-01
      vertex -4.000000e-01 -6.928203e-01 -3.464102e-01
    endloop
  endfacet
  facet normal 3.718542e-17 1.387779e-16 -1.000000e+00
    outer loop
      vertex -4.000000e-01 -6.928203e-01 -3.464102e-01
      vertex -1.469576e-16 -8.000000e-01 -3.464102e-01
      vertex -2.204364e-16 -1.200000e+00 -3.464102e-01
    endloop
  endfacet
  facet normal 3.718542e-17 1.387779e-16 -1.000000e+00
    outer loop
      vertex -4.000000e-01 -6.928203e-01 -3.464102e-01
      vertex -2.204364e-16 -1.200000e+00 -3.464102e-01
      vertex -6.000000e-01 -1.039230e+00 -3.464102e-01
    endloop
  endfacet
  facet normal -2.260446e-01 -8.436100e-01 -4.870585e-01
    outer loop
      vertex -6.000000e-01 -1.039230e+00 -3.464102e-01
      vertex -2.204364e-16 -1.200000e+00 -3.464102e-01
      vertex -2.571758e-16 -1.400000e+00 0.000000e+00
    endloop
  endfacet
  facet normal -2.260446e-01 -8.436100e-01 -4.870585e-01
    outer loop
      vertex -6.000000e-01 -1.039230e+00 -3.464102e-01
      vertex -2.571758e-16 -1.400000e+00 0.000000e+00
      vertex -7.000000e-01 -1.212436e+00 0.000000e+00
    endloop
  endfacet
  facet normal 2.260446e-01 -8.436100e-01 4.870585e-01
    outer loop
      vertex -2.571758e-16 -1.400000e+00 0.000000e+00
      vertex 7.000000e-01 -1.212436e+00 0.000000e+00
      vertex 6.000000e-01 -1.039230e+00 3.464102e-01
    endloop
  endfacet
  facet normal 2.260446e-01 -8.436100e-01 4.870585e-01
    outer loop
      vertex -2.571758e-16 -1.400000e+00 0.000000e+00
      vertex 6.000000e-01 -1.039230e+00 3.464102e-01
      vertex -2.204364e-16 -1.200000e+00 3.464102e-01
    endloop
  endfacet
  facet normal 3.718542e-17 -1.387779e-16 1.000000e+00
    outer loop
      vertex -2.204364e-16 -1.200000e+00 3.464102e-01
      vertex 6.000000e-01 -1.039230e+00 3.464102e-01
      vertex 4.000000e-01 -6.928203e-01 3.464102e-01
    endloop
  endfacet
  facet normal 3.718542e-17 -1.387779e-16 1.000000e+00
    outer loop
      vertex -2.204364e-16 -1.200000e+00 3.464102e-01
      vertex 4.000000e-01 -6.928203e-01 3.464102e-01
      vertex -1.469576e-16 -8.000000e-01 3.464102e-01
    endloop
  endfacet
  facet normal -2.260446e-01 8.436100e-01 4.870585e-01
    outer loop
      vertex -1.469576e-16 -8.000000e-01 3.464102e-01
      vertex 4.000000e-01 -6.928203e-01 3.464102e-01
      vertex 3.000000e-01 -5.196152e-01 4.898587e-17
    endloop
  endfacet
  facet normal -2.260446e-01 8.436100e-01 4.870585e-01
    outer loop
      vertex -1.469576e-16 -8.000000e-01 3.464102e-01
      vertex 3.000000e-01 -5.196152e-01 4.898587e-17
      vertex -1.102182e-16 -6.000000e-01 4.898587e-17
    endloop
  endfacet
  facet normal -2.260446e-01 8.436100e-01 -4.870585e-01
    outer loop
      vertex -1.102182e-16 -6.000000e-01 4.898587e-17
      vertex 3.000000e-01 -5.196152e-01 4.898587e-17
      vertex 4.000000e-01 -6.928203e-01 -3.464102e-01
    endloop
  endfacet
  facet normal -2.260446e-01 8.436100e-01 -4.870585e-01
    outer loop
      vertex -1.102182e-16 -6.000000e-01 4.898587e-17
      vertex 4.000000e-01 -6.928203e-01 -3.464102e-01
      vertex -1.469576e-16 -8.000000e-01 -3.464102e-01
    endloop
  endfacet
  facet normal -3.718542e-17 1.387779e-16 -1.000000e+00
    outer loop
      vertex -1.469576e-16 -8.000000e-01 -3.464102e-01
      vertex 4.000000e-01 -6.928203e-01 -3.464102e-01
      vertex 6.000000e-01 -1.039230e+00 -3.464102e-01
    endloop
  endfacet
  facet normal -3.718542e-17 1.387779e-16 -1.000000e+00
    outer loop
      vertex -1.469576e-16 -8.000000e-01 -3.464102e-01
      vertex 6.000000e-01 -1.039230e+00 -3.464102e-01
      vertex -2.204364e-16 -1.200000e+00 -3.464102e-01
    endloop
  endfacet
  facet normal 2.260446e-01 -8.436100e-01 -4.870585e-01
    outer loop
      vertex -2.204364e-16 -1.200000e+00 -3.464102e-01
      vertex 6.000000e-01 -1.039230e+00 -3.464102e-01
      vertex 7.000000e-01 -1.212436e+00 0.000000e+00
    endloop
  endfacet
  facet normal 2.260446e-01 -8.436100e-01 -4.870585e-01
    outer loop
      vertex -2.204364e-16 -1.200000e+00 -3.464102e-01
      vertex 7.000000e-01 -1.212436e+00 0.000000e+00
      vertex -2.571758e-16 -1.400000e+00 0.000000e+00
    endloop
  endfacet
  facet normal 6.175654e-01 -6.175654e-01 4.870585e-01
    outer loop
      vertex 7.000000e-01 -1.212436e+00 0.000000e+00
      vertex 1.212436e+00 -7.000000e-01 0.000000e+00
      vertex 1.039230e+00 -6.000000e-01 3.464102e-01
    endloop
  endfacet
  facet normal 6.175654e-01 -6.175654e-01 4.870585e-01
    outer loop
      vertex 7.000000e-01 -1.212436e+00 0.000000e+00
      vertex 1.039230e+00 -6.000000e-01 3.464102e-01
      vertex 6.000000e-01 -1.039230e+00 3.464102e-01
    endloop
  endfacet
  facet normal 1.015925e-16 -1.015925e-16 1.000000e+00
    outer loop
      vertex 6.000000e-01 -1.039230e+00 3.464102e-01
      vertex 1.039230e+00 -6.000000e-01 3.464102e-01
      vertex 6.928203e-01 -4.000000e-01 3.464102e-01
    endloop
  endfacet
  facet normal 1.015925e-16 -1.015925e-16 1.000000e+00
    outer loop
      vertex 6.000000e-01 -1.039230e+00 3.464102e-01
      vertex 6.928203e-01 -4.000000e-01 3.464102e-01
      vertex 4.000000e-01 -6.928203e-01 3.464102e-01
    endloop
  endfacet
  facet normal -6.175654e-01 6.175654e-01 4.870585e-01
    outer loop
      vertex 4.000000e-01 -6.928203e-01 3.464102e-01
      vertex 6.928203e-01 -4.000000e-01 3.464102e-01
      vertex 5.196152e-01 -3.000000e-01 4.898587e-17
    endloop
  endfacet
  facet normal -6.175654e-01 6.175654e-01 4.870585e-01
    outer loop
      vertex 4.000000e-01 -6.928203e-01 3.464102e-01
      vertex 5.196152e-01 -3.000000e-01 4.898587e-17
      vertex 3.000000e-01 -5.196152e-01 4.898587e-17
    endloop
  endfacet
  facet normal -6.175654e-01 6.175654e-01 -4.870585e-01
    outer loop
      vertex 3.000000e-01 -5.196152e-01 4.898587e-17
      vertex 5.196152e-01 -3.000000e-01 4.898587e-17
      vertex 6.928203e-01 -4.000000e-01 -3.464102e-01
    endloop
  endfacet
  facet normal -6.175654e-01 6.175654e-01 -4.870585e-01
    outer loop
      vertex 3.000000e-01 -5.196152e-01 4.898587e-17
      vertex 6.928203e-01 -4.000000e-01 -3.464102e-01
      vertex 4.000000e-01 -6.928203e-01 -3.464102e-01
    endloop
  endfacet
  facet normal -1.015925e-16 1.015925e-16 -1.000000e+00
    outer loop
      vertex 4.000000e-01 -6.928203e-01 -3.464102e-01
      vertex 6.928203e-01 -4.000000e-01 -3.464102e-01
      vertex 1.039230e+00 -6.000000e-01 -3.464102e-01
    endloop
  endfacet
  facet normal -1.015925e-16 1.015925e-16 -1.000000e+00
    outer loop
      vertex 4.000000e-01 -6.928203e-01 -3.464102e-01
      vertex 1.039230e+00 -6.000000e-01 -3.464102e-01
      vertex 6.000000e-01 -1.039230e+00 -3.464102e-01
    endloop
  endfacet
  facet normal 6.175654e-01 -6.175654e-01 -4.870585e-01
    outer loop
      vertex 6.000000e-01 -1.039230e+00 -3.464102e-01
      vertex 1.039230e+00 -6.000000e-01 -3.464102e-01
      vertex 1.212436e+00 -7.000000e-01 0.000000e+00
    endloop
  endfacet
  facet normal 6.175654e-01 -6.175654e-01 -4.870585e-01
    outer loop
      vertex 6.000000e-01 -1.039230e+00 -3.464102e-01
      vertex 1.212436e+00 -7.000000e-01 0.000000e+00
      vertex 7.000000e-01 -1.212436e+00 0.000000e+00
    endloop
  endfacet
  facet normal 8.436100e-01 -2.260446e-01 4.870585e-01
    outer loop
      vertex 1.212436e+00 -7.000000e-01 0.000000e+00
      vertex 1.400000e+00 0.000000e+00 0.000000e+00
      vertex 1.200000e+00 0.000000e+00 3.464102e-01
    endloop
  endfacet
  facet normal 8.436100e-01 -2.260446e-01 4.870585e-01
    outer loop
      vertex 1.212436e+00 -7.000000e-01 0.000000e+00
      vertex 1.200000e+00 0.000000e+00 3.464102e-01
      vertex 1.039230e+00 -6.000000e-01 3.464102e-01
    endloop
  endfacet
  facet normal 1.387779e-16 -3.718542e-17 1.000000e+00
    outer loop
      vertex 1.039230e+00 -6.000000e-01 3.464102e-01
      vertex 1.200000e+00 0.000000e+00 3.464102e-01
      vertex 8.000000e-01 0.000000e+00 3.464102e-01
    endloop
  endfacet
  facet normal 1.387779e-16 -3.718542e-17 1.000000e+00
    outer loop
      vertex 1.039230e+00 -6.000000e-01 3.464102e-01
      vertex 8.000000e-01 0.000000e+00 3.464102e-01
      vertex 6.928203e-01 -4.000000e-01 3.464102e-01
    endloop
  endfacet
  facet normal -8.436100e-01 2.260446e-01 4.870585e-01
    outer loop
      vertex 6.928203e-01 -4.000000e-01 3.464102e-01
      vertex 8.000000e-01 0.000000e+00 3.464102e-01
      vertex 6.000000e-01 0.000000e+00 4.898587e-17
    endloop
  endfacet
  facet normal -8.436100e-01 2.260446e-01 4.870585e-01
    outer loop
      vertex 6.928203e-01 -4.000000e-01 3.464102e-01
      vertex 6.000000e-01 0.000000e+00 4.898587e-17
      vertex 5.196152e-01 -3.000000e-01 4.898587e-17
    endloop
  endfacet
  facet normal -8.436100e-01 2.260446e-01 -4.870585e-01
    outer loop
      vertex 5.196152e-01 -3.000000e-01 4.898587e-17
      vertex 6.000000e-01 0.000000e+00 4.898587e-17
      vertex 8.000000e-01 0.000000e+00 -3.464102e-01
    endloop
  endfacet
  facet normal -8.436100e-01 2.260446e-01 -4.870585e-01
    outer loop
      vertex 5.196152e-01 -3.000000e-01 4.898587e-17
      vertex 8.000000e-01 0.000000e+00 -3.464102e-01
      vertex 6.928203e-01 -4.000000e-01 -3.464102e-01
    endloop
  endfacet
  facet normal -1.387779e-16 3.718542e-17 -1.000000e+00
    outer loop
      vertex 6.928203e-01 -4.000000e-01 -3.464102e-01
      vertex 8.000000e-01 0.000000e+00 -3.464102e-01
      vertex 1.200000e+00 0.000000e+00 -3.464102e-01
    endloop
  endfacet
  facet normal -1.387779e-16 3.718542e-17 -1.000000e+00
    outer loop
      vertex 6.928203e-01 -4.000000e-01 -3.464102e-01
      vertex 1.200000e+00 0.000000e+00 -3.464102e-01
      vertex 1.039230e+00 -6.000000e-01 -3.464102e-01
    endloop
  endfacet
  facet normal 8.436100e-01 -2.260446e-01 -4.870585e-01
    outer loop
      vertex 1.039230e+00 -6.000000e-01 -3.464102e-01
      vertex 1.200000e+00 0.000000e+00 -3.464102e-01
      vertex 1.400000e+00 0.000000e+00 0.000000e+00
    endloop
  endfacet
  facet normal 8.436100e-01 -2.260446e-01 -4.870585e-01
    outer loop
      vertex 1.039230e+00 -6.000000e-01 -3.464102e-01
      vertex 1.400000e+00 0.000000e+00 0.000000e+00
      vertex 1.212436e+00 -7.000000e-01 0.000000e+00
    endloop
  endfacet
endsolid curve_torus
